<svg width="214" height="39" viewBox="0 0 214 39" fill="none" xmlns="http://www.w3.org/2000/svg">
<path d="M0.454346 38.4V11.54H6.07211L6.35299 14.3733C7.66381 13.3156 9.1057 12.4844 10.6787 11.88C12.2516 11.2756 13.937 10.9733 15.7347 10.9733C17.6447 10.9733 19.124 11.2944 20.1727 11.9367C21.2588 12.5411 22.0827 13.3911 22.6445 14.4867C23.8804 13.4667 25.3036 12.6356 26.914 11.9933C28.5244 11.3133 30.4532 10.9733 32.7003 10.9733C35.7713 10.9733 38.0372 11.7667 39.4978 13.3533C40.9584 14.94 41.6887 17.3767 41.6887 20.6633V38.4H35.6777V21.2867C35.6777 19.2089 35.247 17.7544 34.3856 16.9233C33.5242 16.0922 32.1198 15.6767 30.1723 15.6767C28.8989 15.6767 27.6818 15.9033 26.5208 16.3567C25.3972 16.81 24.4235 17.49 23.5995 18.3967C23.7119 18.8122 23.7868 19.2467 23.8242 19.7C23.8617 20.1533 23.8804 20.6444 23.8804 21.1733V38.4H18.2065V21.3433C18.2065 19.3789 17.8694 17.9433 17.1953 17.0367C16.5211 16.13 15.2478 15.6767 13.3752 15.6767C12.0644 15.6767 10.8097 15.9978 9.61129 16.64C8.45029 17.2444 7.40164 17.9811 6.46535 18.85V38.4H0.454346Z" fill="#FF603E"/>
<path d="M60.7711 38.9667C55.9773 38.9667 52.4568 37.7578 50.2097 35.34C48.0001 32.9222 46.8952 29.4656 46.8952 24.97C46.8952 20.4744 48.0188 17.0178 50.2659 14.6C52.513 12.1822 56.0147 10.9733 60.7711 10.9733C65.5649 10.9733 69.0854 12.1822 71.3325 14.6C73.5796 17.0178 74.7032 20.4744 74.7032 24.97C74.7032 29.4656 73.5796 32.9222 71.3325 35.34C69.1228 37.7578 65.6024 38.9667 60.7711 38.9667ZM60.7711 33.7533C63.58 33.7533 65.5649 33.0733 66.7259 31.7133C67.9244 30.3156 68.5236 28.0678 68.5236 24.97C68.5236 21.8722 67.9244 19.6433 66.7259 18.2833C65.5649 16.9233 63.58 16.2433 60.7711 16.2433C57.9997 16.2433 56.0147 16.9233 54.8163 18.2833C53.6553 19.6433 53.0748 21.8722 53.0748 24.97C53.0748 28.0678 53.6553 30.3156 54.8163 31.7133C56.0147 33.0733 57.9997 33.7533 60.7711 33.7533Z" fill="#FF603E"/>
<path d="M93.4134 38.9667C88.6195 38.9667 85.0991 37.7578 82.852 35.34C80.6423 32.9222 79.5375 29.4656 79.5375 24.97C79.5375 20.4744 80.661 17.0178 82.9082 14.6C85.1553 12.1822 88.657 10.9733 93.4134 10.9733C98.2072 10.9733 101.728 12.1822 103.975 14.6C106.222 17.0178 107.345 20.4744 107.345 24.97C107.345 29.4656 106.222 32.9222 103.975 35.34C101.765 37.7578 98.2446 38.9667 93.4134 38.9667ZM93.4134 33.7533C96.2222 33.7533 98.2072 33.0733 99.3682 31.7133C100.567 30.3156 101.166 28.0678 101.166 24.97C101.166 21.8722 100.567 19.6433 99.3682 18.2833C98.2072 16.9233 96.2222 16.2433 93.4134 16.2433C90.6419 16.2433 88.657 16.9233 87.4585 18.2833C86.2975 19.6433 85.717 21.8722 85.717 24.97C85.717 28.0678 86.2975 30.3156 87.4585 31.7133C88.657 33.0733 90.6419 33.7533 93.4134 33.7533Z" fill="#FF603E"/>
<path d="M119.613 38.4L109.108 11.54H115.456L122.927 32.3933L130.399 11.54H136.691L126.242 38.4H119.613Z" fill="#FF603E"/>
<path d="M142.981 5.93V0.829996H149.666V5.93H142.981ZM143.486 38.4V16.2433H139.442L140.003 11.54H149.61V38.4H143.486Z" fill="#FF603E"/>
<path d="M171.359 38.9667C169.412 38.9667 167.727 38.7022 166.303 38.1733C164.88 37.6444 163.569 36.8322 162.371 35.7367L162.034 38.4H156.753V0.206665H162.877V13.2967C165.199 11.7478 167.989 10.9733 171.247 10.9733C175.03 10.9733 178.007 12.0689 180.179 14.26C182.389 16.4133 183.494 19.9078 183.494 24.7433C183.494 29.6167 182.408 33.2056 180.235 35.51C178.063 37.8144 175.105 38.9667 171.359 38.9667ZM169.73 34.32C172.502 34.32 174.449 33.5267 175.573 31.94C176.734 30.3533 177.314 27.9544 177.314 24.7433C177.314 21.4189 176.696 19.0767 175.46 17.7167C174.224 16.3567 172.277 15.6767 169.618 15.6767C166.846 15.6767 164.599 16.4511 162.877 18V31.4867C164.637 33.3756 166.921 34.32 169.73 34.32Z" fill="#FF603E"/>
<path d="M202.933 38.9667C198.289 38.9667 194.694 37.8144 192.147 35.51C189.6 33.2056 188.327 29.6733 188.327 24.9133C188.327 20.6067 189.413 17.2067 191.585 14.7133C193.757 12.22 197.053 10.9733 201.472 10.9733C205.517 10.9733 208.551 12.05 210.573 14.2033C212.633 16.3189 213.663 19.0578 213.663 22.42V27.4067H194.169C194.469 30.0133 195.405 31.8078 196.978 32.79C198.551 33.7722 200.948 34.2633 204.169 34.2633C205.517 34.2633 206.903 34.1311 208.326 33.8667C209.749 33.6022 210.985 33.2622 212.034 32.8467V37.38C210.835 37.9089 209.45 38.3056 207.877 38.57C206.341 38.8344 204.693 38.9667 202.933 38.9667ZM194.169 23.3833H208.27V21.5133C208.27 19.6622 207.764 18.2267 206.753 17.2067C205.742 16.1489 204.038 15.62 201.641 15.62C198.795 15.62 196.828 16.2433 195.742 17.49C194.694 18.7367 194.169 20.7011 194.169 23.3833Z" fill="#FF603E"/>
</svg>
